HIERARCHY
ROOT Hips
{
  OFFSET 0 0 0
  CHANNELS 6 Xposition Yposition Zposition Zrotation Yrotation Xrotation
  JOINT LeftThigh
  {
    OFFSET 8.409438 0 -5.917753
    CHANNELS 3 Zrotation Yrotation Xrotation
    JOINT LeftLeg
    {
      OFFSET 0 0 -42.358652
      CHANNELS 3 Zrotation Yrotation Xrotation
      JOINT LeftFoot
      {
        OFFSET 0 0 -39.357303
        CHANNELS 3 Zrotation Yrotation Xrotation
      }
    }
  }
  JOINT RightThigh
  {
    OFFSET -8.409438 0 -5.917753
    CHANNELS 3 Zrotation Yrotation Xrotation
    JOINT RightLeg
    {
      OFFSET 0 0 -42.358652
      CHANNELS 3 Zrotation Yrotation Xrotation
      JOINT RightFoot
      {
        OFFSET 0 0 -39.357303
        CHANNELS 3 Zrotation Yrotation Xrotation
      }
    }
  }
  JOINT SpineLow
  {
    OFFSET 0 0 4.719101
    CHANNELS 3 Zrotation Yrotation Xrotation
    JOINT SpineMid
    {
      OFFSET 0 0 12.899191
      CHANNELS 3 Zrotation Yrotation Xrotation
      JOINT Chest
      {
        OFFSET 0 0 12.899191
        CHANNELS 3 Zrotation Yrotation Xrotation
        JOINT LeftShoulder
        {
          OFFSET 7.550562 1.41573 9.438202
          CHANNELS 3 Zrotation Yrotation Xrotation
          JOINT LeftArm
          {
            OFFSET 9.155056 0 4.247191
            CHANNELS 3 Zrotation Yrotation Xrotation
            JOINT LeftForearm
            {
              OFFSET 0 0 25.771955
              CHANNELS 3 Zrotation Yrotation Xrotation
              JOINT LeftHand
              {
                OFFSET 0 0 25.197169
                CHANNELS 3 Zrotation Yrotation Xrotation
              }
            }
          }
        }
        JOINT RightShoulder
        {
          OFFSET -7.550562 1.41573 9.438202
          CHANNELS 3 Zrotation Yrotation Xrotation
          JOINT RightArm
          {
            OFFSET -9.155056 0 4.247191
            CHANNELS 3 Zrotation Yrotation Xrotation
            JOINT RightForearm
            {
              OFFSET 0 0 -25.771955
              CHANNELS 3 Zrotation Yrotation Xrotation
              JOINT RightHand
              {
                OFFSET 0 0 -25.197169
                CHANNELS 3 Zrotation Yrotation Xrotation
              }
            }
          }
        }
        JOINT Neck
        {
          OFFSET 0 0 15.101124
          CHANNELS 3 Zrotation Yrotation Xrotation
          JOINT Head
          {
            OFFSET 0 0 11.325843
            CHANNELS 3 Zrotation Yrotation Xrotation
            End Site
            {
              OFFSET 0 0 14.157303
            }
          }
        }
      }
    }
  }
}
MOTION
Frames: 8
Frame Time: 0.0
0.0  89.887642  0.0  9.795971  -57.108556  -110.485689  39.202269  -45.672253  -31.259614  19.628591  37.009525  72.049311  15.278931  10.708513  9.347576  -17.102267  19.376397  -26.502073  21.332812  7.217867  58.256297  1.606884  -2.751023  -1.443439  0.504758  0.677554  0.995717  1.407667  1.830788  2.736347  1.407667  1.830788  2.736347  -4.691611  16.64808  9.307536  -103.238  51.179382  -98.324368  -42.088142  10.744257  69.596782  75.090164  -2.643035  2.23108  1.888434  -0.72292  24.128199  142.844727  42.499153  60.695247  -18.689779  -13.827387  -72.483693  100.569453  5.782089  -24.383203  15.606391  0.206731  11.282463  11.705735  0.443845  8.463133  
0.0  89.887642  0.0  9.936563  -56.962936  -110.374486  39.033593  -45.459681  -31.278885  19.735951  36.854008  71.830347  15.312954  10.602051  9.350969  -17.007678  19.309448  -26.651269  21.399152  7.300309  58.35165  1.664281  -2.822145  -1.592114  0.534307  0.703046  0.966065  1.48867  1.8999  2.656703  1.48867  1.8999  2.656704  -4.921368  16.581125  9.365124  -103.922139  51.16541  -98.614161  -42.02755  10.181065  69.628711  75.027488  -2.613919  2.745957  1.052523  -0.790271  23.728639  142.871547  41.846174  60.349349  -18.915121  -13.598647  -72.673879  99.947254  5.780196  -24.788695  15.37459  0.202604  11.178657  11.531836  0.433826  8.385209  
0.0  89.887642  0.0  9.884907  -56.835077  -110.130174  38.866055  -45.384226  -31.35687  19.816268  36.67565  71.554425  15.401982  10.558212  9.442337  -17.253938  19.080763  -26.835934  21.604583  7.335772  58.347378  1.782053  -2.830209  -1.73586  0.567354  0.727644  0.965628  1.580007  1.965793  2.657076  1.580007  1.965793  2.657076  -5.156023  16.485276  9.25557  -104.467995  51.178941  -98.800042  -41.988826  9.769575  69.699172  74.888337  -2.582479  3.240558  0.928313  -0.778353  23.286996  142.459376  41.472081  59.889088  -19.229184  -13.548625  -72.787762  99.329859  5.740855  -25.109892  15.133429  0.167015  10.955168  11.351427  0.397121  8.218235  
0.0  89.887642  0.0  9.833052  -56.712917  -109.906077  38.619318  -45.361329  -31.394268  20.336474  36.199993  71.682552  15.163908  10.391549  9.361433  -17.565189  18.855615  -27.079467  21.650855  7.319427  58.378052  1.959714  -2.670126  -1.837058  0.545908  0.751397  0.981099  1.52283  2.03121  2.699328  1.52283  2.03121  2.699328  -5.200752  16.384055  9.066244  -104.866383  51.197463  -98.846817  -42.041696  9.519909  69.720341  74.812735  -2.513903  3.517442  0.879541  -0.948974  22.821626  142.01831  41.199833  59.554891  -18.991869  -13.486494  -73.096691  98.779164  5.709454  -25.449298  15.025038  0.137296  10.62965  11.270457  0.364829  7.974597  
0.0  89.887642  0.0  9.583933  -56.634851  -109.674906  38.421583  -45.50343  -31.371527  20.514028  35.906292  71.463582  15.223697  10.328402  9.483544  -17.825548  18.57274  -27.085353  21.910682  7.25858  58.355169  1.951869  -2.648696  -1.897615  0.543693  0.759954  1.01269  1.518107  2.053947  2.785843  1.518107  2.053947  2.785843  -5.242839  16.314236  8.960533  -105.129123  51.214079  -98.805956  -42.108391  9.399116  69.731292  74.674622  -2.515469  3.727427  1.035397  -0.999251  22.415999  141.759096  40.869536  59.253924  -19.119566  -13.575912  -73.181522  98.292905  5.716076  -25.674343  14.918933  0.085404  10.377453  11.1916  0.317842  7.786527  
0.0  89.887642  0.0  9.392947  -56.591466  -109.522098  38.32646  -45.649483  -31.322858  20.60177  35.613914  71.218467  15.114053  10.179372  9.513473  -18.497513  18.204928  -27.188203  22.347386  7.191531  58.307131  2.088613  -2.499777  -1.95354  0.531101  0.762177  1.035066  1.484473  2.060045  2.846685  1.484473  2.060045  2.846685  -5.171976  16.264025  8.959311  -105.4067  51.271132  -98.61584  -42.263095  9.237124  69.63192  74.634618  -2.510526  3.817182  1.323901  -1.044377  22.327657  140.942603  41.069316  58.873702  -18.806713  -13.649397  -73.453926  98.187107  5.658447  -26.024087  14.847928  0.041566  10.171964  11.138938  0.278713  7.633325  
0.0  89.887642  0.0  9.233299  -56.552734  -109.431008  38.34639  -45.758079  -31.298157  20.637769  35.350131  70.993163  15.120757  10.108396  9.637843  -18.411123  18.030882  -27.022611  22.397563  7.210477  58.315041  2.076276  -2.516363  -1.965637  0.542216  0.772681  1.055881  1.515972  2.087783  2.904198  1.515972  2.087783  2.904198  -5.199171  16.182696  8.984194  -105.584793  51.285264  -98.527215  -42.315438  9.185865  69.649323  74.641879  -2.522448  3.925158  1.476619  -1.032279  22.228865  140.902348  40.933499  58.768542  -18.801811  -13.727326  -73.497229  97.992825  5.600954  -26.008941  14.726359  -0.035596  10.008227  11.048888  0.214798  7.512217  
0.0  89.887642  0.0  9.175988  -56.569352  -109.400164  38.552126  -45.803672  -31.383184  20.247137  35.363497  70.440927  15.174491  10.034163  9.770008  -18.371978  17.854397  -26.920735  22.418734  7.20174  58.310636  2.137322  -2.374313  -1.940011  0.546467  0.784125  1.076971  1.528779  2.118373  2.962278  1.528779  2.118373  2.962278  -5.100662  16.105631  8.943086  -105.813467  51.394738  -98.232337  -42.41093  8.89559  69.515624  74.713972  -2.544793  4.061314  1.801267  -1.027155  22.235164  140.425431  41.169394  58.537952  -18.682727  -13.751676  -73.529659  97.907041  5.49169  -25.82936  14.66223  -0.077603  9.837201  11.00132  0.178095  7.384818  
